#N canvas 561 161 605 578 10;
#X declare -stdpath osc -stdpath iemnet;
#X declare -lib osc -lib iemnet;
#X obj 109 453 loadbang;
#X obj 51 23 declare -stdpath osc -stdpath iemnet;
#X obj 51 46 import osc iemnet;
#X obj 53 442 packOSC;
#X obj 102 501 udpsend;
#X msg 109 474 connect localhost 31337;
#X msg 54 378 /spray/begin \$1 \$2;
#X msg 178 379 /spray/at \$1 \$2;
#X msg 289 380 /spray/end;
#X obj 115 112 t b b b;
#X obj 119 77 bng 15 250 50 0 empty empty empty 17 7 0 10 -262144 -1
-1;
#X obj 150 177 random 1280;
#X obj 150 148 t b b;
#X obj 152 260 line 0 100;
#X obj 228 177 random 1280;
#X obj 321 148 t b b;
#X obj 321 177 random 720;
#X obj 399 177 random 720;
#X obj 151 206 pack f f;
#X obj 319 202 pack f f;
#X msg 151 232 \$1 \, \$2 1000;
#X obj 511 157 delay 5000;
#X obj 321 259 line 0 100;
#X msg 320 231 \$1 \, \$2 1000;
#X obj 237 346 pack f f;
#X obj 152 286 int;
#X obj 321 283 int;
#X connect 0 0 5 0;
#X connect 3 0 4 0;
#X connect 5 0 4 0;
#X connect 6 0 3 0;
#X connect 7 0 3 0;
#X connect 8 0 3 0;
#X connect 9 0 12 0;
#X connect 9 1 15 0;
#X connect 9 2 21 0;
#X connect 10 0 9 0;
#X connect 11 0 18 0;
#X connect 12 0 11 0;
#X connect 12 1 14 0;
#X connect 13 0 25 0;
#X connect 14 0 18 1;
#X connect 15 0 16 0;
#X connect 15 1 17 0;
#X connect 16 0 19 0;
#X connect 17 0 19 1;
#X connect 18 0 20 0;
#X connect 19 0 23 0;
#X connect 20 0 13 0;
#X connect 21 0 8 0;
#X connect 22 0 26 0;
#X connect 23 0 22 0;
#X connect 24 0 7 0;
#X connect 25 0 24 0;
#X connect 26 0 24 1;
